<svg xmlns="http://www.w3.org/2000/svg" viewBox="0 0 256 256" role="img" aria-label="Elqira favicon">
  <defs>
    <linearGradient id="bubbleGradient" x1="0" y1="0" x2="1" y2="1">
      <stop offset="0%" stop-color="#8EDBFF"/>
      <stop offset="55%" stop-color="#43B8F4"/>
      <stop offset="100%" stop-color="#28D7C9"/>
    </linearGradient>
  </defs>

  <path fill="url(#bubbleGradient)" d="M70 48h108c26.51 0 48 21.49 48 48v38c0 34.24-27.76 62-62 62h-56l-42 20c-4.48 2.13-9.47-1.84-8.38-6.67L64 184V96c0-26.51 21.49-48 48-48Z"/>

  <g fill="none" stroke="#FFFFFF" stroke-linecap="round" stroke-linejoin="round">
    <path d="M88 150c8-38 30-58 66-58h22" stroke-width="14"/>
    <path d="M88 168c7-26 24-40 52-40h38" stroke-width="14"/>
    <path d="M96 184c6-15 18-24 36-24h20" stroke-width="14"/>
  </g>

  <g fill="#FFFFFF">
    <circle cx="180" cy="92" r="14"/>
    <circle cx="190" cy="128" r="14"/>
    <circle cx="154" cy="160" r="14"/>
  </g>
</svg>
