<?xml version="1.0" encoding="UTF-8"?>
<svg id="Livello_1" data-name="Livello 1" xmlns="http://www.w3.org/2000/svg" xmlns:xlink="http://www.w3.org/1999/xlink" viewBox="0 0 1024 1024">
  <defs>
    <style>
      .cls-1 {
        opacity: .1;
      }

      .cls-1, .cls-2 {
        fill: #fff;
      }

      .cls-3 {
        fill: url(#Sfumatura_senza_nome_224);
      }
    </style>
    <linearGradient id="Sfumatura_senza_nome_224" data-name="Sfumatura senza nome 224" x1="512" y1="992" x2="512" y2="32" gradientUnits="userSpaceOnUse">
      <stop offset="0" stop-color="#2a14b4"/>
      <stop offset="1" stop-color="#184c90"/>
    </linearGradient>
  </defs>
  <rect class="cls-3" x="32" y="32" width="960" height="960" rx="162.48" ry="162.48"/>
  <path class="cls-1" d="M829.52,32H194.48c-89.74,0-162.48,72.74-162.48,162.48v30c0-89.74,72.75-162.48,162.48-162.48h635.04c89.74,0,162.48,72.74,162.48,162.48v-30c0-89.74-72.75-162.48-162.48-162.48Z"/>
  <path class="cls-2" d="M179.2,652.84v-338.33h235.91v66.41h-154.13v69.38h142.07v66.58h-142.07v69.55h154.13v66.41h-235.91Z"/>
  <path class="cls-2" d="M547.11,314.51v338.33h-80.78v-338.33h80.78Z"/>
  <path class="cls-2" d="M764.01,748v-136.29h-1.65c-3.42,7.82-8.26,15.14-14.54,21.97-6.28,6.83-14.13,12.34-23.54,16.52-9.42,4.18-20.51,6.28-33.29,6.28-18.72,0-35.74-4.85-51.05-14.54-15.31-9.69-27.53-24.23-36.67-43.61-9.14-19.38-13.71-43.45-13.71-72.19s4.73-54.41,14.21-73.68c9.47-19.27,21.89-33.54,37.25-42.79,15.36-9.25,31.91-13.88,49.64-13.88,13.32,0,24.72,2.29,34.2,6.86,9.47,4.57,17.29,10.44,23.46,17.59,6.17,7.16,10.85,14.59,14.04,22.3h2.48v-43.45h79.96v348.91h-80.78ZM719.08,593.54c9.8,0,18.17-2.78,25.11-8.34,6.94-5.56,12.28-13.41,16.02-23.54,3.74-10.13,5.62-22.03,5.62-35.68s-1.85-25.83-5.53-35.85c-3.69-10.02-9.03-17.73-16.02-23.13-7-5.39-15.39-8.1-25.19-8.1s-18.5,2.75-25.44,8.26c-6.94,5.51-12.2,13.27-15.78,23.29-3.58,10.02-5.37,21.86-5.37,35.52s1.82,25.55,5.45,35.68c3.63,10.13,8.89,17.98,15.78,23.54,6.88,5.56,15.34,8.34,25.36,8.34Z"/>
</svg>